<?xml version="1.0" standalone="no"?>
<!DOCTYPE svg PUBLIC "-//W3C//DTD SVG 20010904//EN"
 "http://www.w3.org/TR/2001/REC-SVG-20010904/DTD/svg10.dtd">
<svg version="1.0" xmlns="http://www.w3.org/2000/svg"
 width="512.000000pt" height="512.000000pt" viewBox="0 0 512.000000 512.000000"
 preserveAspectRatio="xMidYMid meet">

<g transform="translate(0.000000,512.000000) scale(0.100000,-0.100000)"
fill="#000000" stroke="none">
<path d="M1790 4569 c-41 -13 -920 -425 -933 -438 -8 -8 105 -333 123 -354 4
-4 197 62 430 148 233 86 429 154 436 151 12 -5 284 -205 309 -228 6 -5 -25
-43 -80 -98 l-90 -90 -62 0 c-34 0 -85 5 -113 11 -79 17 -130 -15 -130 -82 0
-31 44 -68 90 -75 22 -4 42 -10 45 -13 2 -4 -35 -43 -83 -88 -137 -125 -200
-219 -251 -369 -25 -76 -42 -204 -27 -204 6 0 5 -4 -3 -9 -28 -18 14 -231 65
-334 69 -136 184 -258 303 -321 38 -20 144 -65 237 -101 93 -37 172 -70 177
-74 4 -4 -39 -131 -96 -282 l-103 -274 -96 -3 -96 -3 -97 -241 c-53 -132 -95
-241 -93 -242 4 -3 647 219 651 225 9 11 393 840 410 884 10 28 20 51 22 53 5
5 129 -29 138 -37 7 -7 -77 -369 -88 -379 -2 -2 -35 -8 -73 -14 l-70 -10 -51
-205 c-29 -113 -50 -207 -48 -209 5 -5 589 196 600 206 14 12 56 284 45 291
-6 4 12 85 46 204 63 223 69 280 35 370 -37 98 -88 138 -295 229 -98 44 -231
101 -294 127 -63 26 -161 67 -218 92 l-104 44 49 35 c26 20 73 58 104 84 31
27 148 126 260 221 112 94 214 188 227 208 33 53 54 141 46 200 -7 56 -45 143
-73 169 -17 16 -15 20 60 93 44 42 79 80 79 84 0 9 -378 463 -389 467 -4 1
-43 -29 -85 -69 l-76 -71 0 51 c0 62 -30 101 -78 101 -53 0 -76 -30 -82 -105
l-5 -66 -170 146 c-101 87 -192 157 -224 172 -60 29 -156 39 -211 22z m881
-566 c13 -16 12 -17 -3 -4 -17 13 -22 21 -14 21 2 0 10 -8 17 -17z m60 -50
c13 -16 12 -17 -3 -4 -17 13 -22 21 -14 21 2 0 10 -8 17 -17z m-1204 -1129
c-3 -3 -12 -4 -19 -1 -8 3 -5 6 6 6 11 1 17 -2 13 -5z m70 -10 c-3 -3 -12 -4
-19 -1 -8 3 -5 6 6 6 11 1 17 -2 13 -5z m70 -10 c-3 -3 -12 -4 -19 -1 -8 3 -5
6 6 6 11 1 17 -2 13 -5z m70 -10 c-3 -3 -12 -4 -19 -1 -8 3 -5 6 6 6 11 1 17
-2 13 -5z m70 -10 c-3 -3 -12 -4 -19 -1 -8 3 -5 6 6 6 11 1 17 -2 13 -5z m280
-40 c-3 -3 -12 -4 -19 -1 -8 3 -5 6 6 6 11 1 17 -2 13 -5z m70 -10 c-3 -3 -12
-4 -19 -1 -8 3 -5 6 6 6 11 1 17 -2 13 -5z m70 -10 c-3 -3 -12 -4 -19 -1 -8 3
-5 6 6 6 11 1 17 -2 13 -5z"/>
<path d="M3068 4443 c38 -164 159 -634 165 -639 4 -4 136 25 145 31 2 2 -9 49
-23 105 l-26 102 72 96 72 96 -34 29 c-19 15 -46 37 -61 48 l-27 19 -35 -45
-35 -46 -10 38 c-5 21 -15 60 -22 86 -10 43 -19 54 -83 101 -39 29 -83 60 -97
70 l-27 17 26 -108z"/>
</g>
</svg>
